<svg aria-roledescription="er" role="graphics-document document" viewBox="0 0 712.207275390625 364" style="max-width: 712.207px; background-color: rgb(255, 255, 255);" xmlns:xlink="http://www.w3.org/1999/xlink" xmlns="http://www.w3.org/2000/svg" width="100%" id="mermaid-1684934575380"><style>#mermaid-1684934575380{font-family:"trebuchet ms",verdana,arial,sans-serif;font-size:16px;fill:#333;}#mermaid-1684934575380 .error-icon{fill:#552222;}#mermaid-1684934575380 .error-text{fill:#552222;stroke:#552222;}#mermaid-1684934575380 .edge-thickness-normal{stroke-width:2px;}#mermaid-1684934575380 .edge-thickness-thick{stroke-width:3.5px;}#mermaid-1684934575380 .edge-pattern-solid{stroke-dasharray:0;}#mermaid-1684934575380 .edge-pattern-dashed{stroke-dasharray:3;}#mermaid-1684934575380 .edge-pattern-dotted{stroke-dasharray:2;}#mermaid-1684934575380 .marker{fill:#333333;stroke:#333333;}#mermaid-1684934575380 .marker.cross{stroke:#333333;}#mermaid-1684934575380 svg{font-family:"trebuchet ms",verdana,arial,sans-serif;font-size:16px;}#mermaid-1684934575380 .entityBox{fill:#ECECFF;stroke:#9370DB;}#mermaid-1684934575380 .attributeBoxOdd{fill:#ffffff;stroke:#9370DB;}#mermaid-1684934575380 .attributeBoxEven{fill:#f2f2f2;stroke:#9370DB;}#mermaid-1684934575380 .relationshipLabelBox{fill:hsl(80, 100%, 96.2745098039%);opacity:0.7;background-color:hsl(80, 100%, 96.2745098039%);}#mermaid-1684934575380 .relationshipLabelBox rect{opacity:0.5;}#mermaid-1684934575380 .relationshipLine{stroke:#333333;}#mermaid-1684934575380 .entityTitleText{text-anchor:middle;font-size:18px;fill:#333;}#mermaid-1684934575380 :root{--mermaid-font-family:"trebuchet ms",verdana,arial,sans-serif;}</style><g/><defs><marker orient="auto" markerHeight="18" markerWidth="18" refY="9" refX="0" id="ONLY_ONE_START"><path d="M9,0 L9,18 M15,0 L15,18" fill="none" stroke="gray"/></marker></defs><defs><marker orient="auto" markerHeight="18" markerWidth="18" refY="9" refX="18" id="ONLY_ONE_END"><path d="M3,0 L3,18 M9,0 L9,18" fill="none" stroke="gray"/></marker></defs><defs><marker orient="auto" markerHeight="18" markerWidth="30" refY="9" refX="0" id="ZERO_OR_ONE_START"><circle r="6" cy="9" cx="21" fill="white" stroke="gray"/><path d="M9,0 L9,18" fill="none" stroke="gray"/></marker></defs><defs><marker orient="auto" markerHeight="18" markerWidth="30" refY="9" refX="30" id="ZERO_OR_ONE_END"><circle r="6" cy="9" cx="9" fill="white" stroke="gray"/><path d="M21,0 L21,18" fill="none" stroke="gray"/></marker></defs><defs><marker orient="auto" markerHeight="36" markerWidth="45" refY="18" refX="18" id="ONE_OR_MORE_START"><path d="M0,18 Q 18,0 36,18 Q 18,36 0,18 M42,9 L42,27" fill="none" stroke="gray"/></marker></defs><defs><marker orient="auto" markerHeight="36" markerWidth="45" refY="18" refX="27" id="ONE_OR_MORE_END"><path d="M3,9 L3,27 M9,18 Q27,0 45,18 Q27,36 9,18" fill="none" stroke="gray"/></marker></defs><defs><marker orient="auto" markerHeight="36" markerWidth="57" refY="18" refX="18" id="ZERO_OR_MORE_START"><circle r="6" cy="18" cx="48" fill="white" stroke="gray"/><path d="M0,18 Q18,0 36,18 Q18,36 0,18" fill="none" stroke="gray"/></marker></defs><defs><marker orient="auto" markerHeight="36" markerWidth="57" refY="18" refX="39" id="ZERO_OR_MORE_END"><circle r="6" cy="18" cx="9" fill="white" stroke="gray"/><path d="M21,18 Q39,0 57,18 Q39,36 21,18" fill="none" stroke="gray"/></marker></defs><path style="stroke: gray; fill: none;" marker-start="url(#ZERO_OR_MORE_START)" marker-end="url(#ONLY_ONE_END)" d="M577.8991470336914,132L577.8991470336914,140.33333333333334C577.8991470336914,148.66666666666666,577.8991470336914,165.33333333333334,577.8991470336914,182C577.8991470336914,198.66666666666666,577.8991470336914,215.33333333333334,577.8991470336914,223.66666666666666L577.8991470336914,232" class="er relationshipLine"/><g transform="translate(20,31 )" id="entity-users-33ae1e26-be31-5c1d-bf65-e859e9d0308e"><rect height="90" width="121.79550170898438" y="0" x="0" class="er entityBox"/><text style="dominant-baseline: middle; text-anchor: middle; font-size: 12px;" transform="translate(60.89775085449219,12)" y="0" x="0" id="text-entity-users-33ae1e26-be31-5c1d-bf65-e859e9d0308e" class="er entityLabel">users</text><rect height="22" width="63.70890808105469" y="24" x="0" class="er attributeBoxOdd"/><text style="dominant-baseline: middle; font-size: 10.2px;" transform="translate(5,35)" y="0" x="0" id="text-entity-users-33ae1e26-be31-5c1d-bf65-e859e9d0308e-attr-1-type" class="er entityLabel">int</text><rect height="22" width="35.39891052246094" y="24" x="63.70890808105469" class="er attributeBoxOdd"/><text style="dominant-baseline: middle; font-size: 10.2px;" transform="translate(68.70890808105469,35)" y="0" x="0" id="text-entity-users-33ae1e26-be31-5c1d-bf65-e859e9d0308e-attr-1-name" class="er entityLabel">id</text><rect height="22" width="22.68768310546875" y="24" x="99.10781860351562" class="er attributeBoxOdd"/><text style="dominant-baseline: middle; font-size: 10.2px;" transform="translate(104.10781860351562,35)" y="0" x="0" id="text-entity-users-33ae1e26-be31-5c1d-bf65-e859e9d0308e-attr-1-key" class="er entityLabel">PK</text><rect height="22" width="63.70890808105469" y="46" x="0" class="er attributeBoxEven"/><text style="dominant-baseline: middle; font-size: 10.2px;" transform="translate(5,57)" y="0" x="0" id="text-entity-users-33ae1e26-be31-5c1d-bf65-e859e9d0308e-attr-2-type" class="er entityLabel">varcahr(50)</text><rect height="22" width="35.39891052246094" y="46" x="63.70890808105469" class="er attributeBoxEven"/><text style="dominant-baseline: middle; font-size: 10.2px;" transform="translate(68.70890808105469,57)" y="0" x="0" id="text-entity-users-33ae1e26-be31-5c1d-bf65-e859e9d0308e-attr-2-name" class="er entityLabel">name</text><rect height="22" width="22.68768310546875" y="46" x="99.10781860351562" class="er attributeBoxEven"/><text style="dominant-baseline: middle; font-size: 10.2px;" transform="translate(104.10781860351562,57)" y="0" x="0" id="text-entity-users-33ae1e26-be31-5c1d-bf65-e859e9d0308e-attr-2-key" class="er entityLabel"/><rect height="22" width="63.70890808105469" y="68" x="0" class="er attributeBoxOdd"/><text style="dominant-baseline: middle; font-size: 10.2px;" transform="translate(5,79)" y="0" x="0" id="text-entity-users-33ae1e26-be31-5c1d-bf65-e859e9d0308e-attr-3-type" class="er entityLabel">varchar(50)</text><rect height="22" width="35.39891052246094" y="68" x="63.70890808105469" class="er attributeBoxOdd"/><text style="dominant-baseline: middle; font-size: 10.2px;" transform="translate(68.70890808105469,79)" y="0" x="0" id="text-entity-users-33ae1e26-be31-5c1d-bf65-e859e9d0308e-attr-3-name" class="er entityLabel">email</text><rect height="22" width="22.68768310546875" y="68" x="99.10781860351562" class="er attributeBoxOdd"/><text style="dominant-baseline: middle; font-size: 10.2px;" transform="translate(104.10781860351562,79)" y="0" x="0" id="text-entity-users-33ae1e26-be31-5c1d-bf65-e859e9d0308e-attr-3-key" class="er entityLabel"/></g><g transform="translate(241.79550170898438,31 )" id="entity-customers-81c4bf60-f037-5ffd-bea1-c082debbd530"><rect height="90" width="121.79550170898438" y="0" x="0" class="er entityBox"/><text style="dominant-baseline: middle; text-anchor: middle; font-size: 12px;" transform="translate(60.89775085449219,12)" y="0" x="0" id="text-entity-customers-81c4bf60-f037-5ffd-bea1-c082debbd530" class="er entityLabel">customers</text><rect height="22" width="63.70890808105469" y="24" x="0" class="er attributeBoxOdd"/><text style="dominant-baseline: middle; font-size: 10.2px;" transform="translate(5,35)" y="0" x="0" id="text-entity-customers-81c4bf60-f037-5ffd-bea1-c082debbd530-attr-1-type" class="er entityLabel">int</text><rect height="22" width="35.39891052246094" y="24" x="63.70890808105469" class="er attributeBoxOdd"/><text style="dominant-baseline: middle; font-size: 10.2px;" transform="translate(68.70890808105469,35)" y="0" x="0" id="text-entity-customers-81c4bf60-f037-5ffd-bea1-c082debbd530-attr-1-name" class="er entityLabel">id</text><rect height="22" width="22.68768310546875" y="24" x="99.10781860351562" class="er attributeBoxOdd"/><text style="dominant-baseline: middle; font-size: 10.2px;" transform="translate(104.10781860351562,35)" y="0" x="0" id="text-entity-customers-81c4bf60-f037-5ffd-bea1-c082debbd530-attr-1-key" class="er entityLabel">PK</text><rect height="22" width="63.70890808105469" y="46" x="0" class="er attributeBoxEven"/><text style="dominant-baseline: middle; font-size: 10.2px;" transform="translate(5,57)" y="0" x="0" id="text-entity-customers-81c4bf60-f037-5ffd-bea1-c082debbd530-attr-2-type" class="er entityLabel">varcahr(50)</text><rect height="22" width="35.39891052246094" y="46" x="63.70890808105469" class="er attributeBoxEven"/><text style="dominant-baseline: middle; font-size: 10.2px;" transform="translate(68.70890808105469,57)" y="0" x="0" id="text-entity-customers-81c4bf60-f037-5ffd-bea1-c082debbd530-attr-2-name" class="er entityLabel">name</text><rect height="22" width="22.68768310546875" y="46" x="99.10781860351562" class="er attributeBoxEven"/><text style="dominant-baseline: middle; font-size: 10.2px;" transform="translate(104.10781860351562,57)" y="0" x="0" id="text-entity-customers-81c4bf60-f037-5ffd-bea1-c082debbd530-attr-2-key" class="er entityLabel"/><rect height="22" width="63.70890808105469" y="68" x="0" class="er attributeBoxOdd"/><text style="dominant-baseline: middle; font-size: 10.2px;" transform="translate(5,79)" y="0" x="0" id="text-entity-customers-81c4bf60-f037-5ffd-bea1-c082debbd530-attr-3-type" class="er entityLabel">varchar(50)</text><rect height="22" width="35.39891052246094" y="68" x="63.70890808105469" class="er attributeBoxOdd"/><text style="dominant-baseline: middle; font-size: 10.2px;" transform="translate(68.70890808105469,79)" y="0" x="0" id="text-entity-customers-81c4bf60-f037-5ffd-bea1-c082debbd530-attr-3-name" class="er entityLabel">email</text><rect height="22" width="22.68768310546875" y="68" x="99.10781860351562" class="er attributeBoxOdd"/><text style="dominant-baseline: middle; font-size: 10.2px;" transform="translate(104.10781860351562,79)" y="0" x="0" id="text-entity-customers-81c4bf60-f037-5ffd-bea1-c082debbd530-attr-3-key" class="er entityLabel"/></g><g transform="translate(506.46026611328125,232 )" id="entity-supplier-83897f16-47ad-56a4-80b2-af0c2194fa83"><rect height="112" width="142.8777618408203" y="0" x="0" class="er entityBox"/><text style="dominant-baseline: middle; text-anchor: middle; font-size: 12px;" transform="translate(71.43888092041016,12)" y="0" x="0" id="text-entity-supplier-83897f16-47ad-56a4-80b2-af0c2194fa83" class="er entityLabel">supplier</text><rect height="22" width="63.70890808105469" y="24" x="0" class="er attributeBoxOdd"/><text style="dominant-baseline: middle; font-size: 10.2px;" transform="translate(5,35)" y="0" x="0" id="text-entity-supplier-83897f16-47ad-56a4-80b2-af0c2194fa83-attr-1-type" class="er entityLabel">int</text><rect height="22" width="56.481170654296875" y="24" x="63.70890808105469" class="er attributeBoxOdd"/><text style="dominant-baseline: middle; font-size: 10.2px;" transform="translate(68.70890808105469,35)" y="0" x="0" id="text-entity-supplier-83897f16-47ad-56a4-80b2-af0c2194fa83-attr-1-name" class="er entityLabel">id</text><rect height="22" width="22.68768310546875" y="24" x="120.19007873535156" class="er attributeBoxOdd"/><text style="dominant-baseline: middle; font-size: 10.2px;" transform="translate(125.19007873535156,35)" y="0" x="0" id="text-entity-supplier-83897f16-47ad-56a4-80b2-af0c2194fa83-attr-1-key" class="er entityLabel">PK</text><rect height="22" width="63.70890808105469" y="46" x="0" class="er attributeBoxEven"/><text style="dominant-baseline: middle; font-size: 10.2px;" transform="translate(5,57)" y="0" x="0" id="text-entity-supplier-83897f16-47ad-56a4-80b2-af0c2194fa83-attr-2-type" class="er entityLabel">varcahr(50)</text><rect height="22" width="56.481170654296875" y="46" x="63.70890808105469" class="er attributeBoxEven"/><text style="dominant-baseline: middle; font-size: 10.2px;" transform="translate(68.70890808105469,57)" y="0" x="0" id="text-entity-supplier-83897f16-47ad-56a4-80b2-af0c2194fa83-attr-2-name" class="er entityLabel">name</text><rect height="22" width="22.68768310546875" y="46" x="120.19007873535156" class="er attributeBoxEven"/><text style="dominant-baseline: middle; font-size: 10.2px;" transform="translate(125.19007873535156,57)" y="0" x="0" id="text-entity-supplier-83897f16-47ad-56a4-80b2-af0c2194fa83-attr-2-key" class="er entityLabel"/><rect height="22" width="63.70890808105469" y="68" x="0" class="er attributeBoxOdd"/><text style="dominant-baseline: middle; font-size: 10.2px;" transform="translate(5,79)" y="0" x="0" id="text-entity-supplier-83897f16-47ad-56a4-80b2-af0c2194fa83-attr-3-type" class="er entityLabel">varcahr(50)</text><rect height="22" width="56.481170654296875" y="68" x="63.70890808105469" class="er attributeBoxOdd"/><text style="dominant-baseline: middle; font-size: 10.2px;" transform="translate(68.70890808105469,79)" y="0" x="0" id="text-entity-supplier-83897f16-47ad-56a4-80b2-af0c2194fa83-attr-3-name" class="er entityLabel">address</text><rect height="22" width="22.68768310546875" y="68" x="120.19007873535156" class="er attributeBoxOdd"/><text style="dominant-baseline: middle; font-size: 10.2px;" transform="translate(125.19007873535156,79)" y="0" x="0" id="text-entity-supplier-83897f16-47ad-56a4-80b2-af0c2194fa83-attr-3-key" class="er entityLabel"/><rect height="22" width="63.70890808105469" y="90" x="0" class="er attributeBoxEven"/><text style="dominant-baseline: middle; font-size: 10.2px;" transform="translate(5,101)" y="0" x="0" id="text-entity-supplier-83897f16-47ad-56a4-80b2-af0c2194fa83-attr-4-type" class="er entityLabel">varcahr(50)</text><rect height="22" width="56.481170654296875" y="90" x="63.70890808105469" class="er attributeBoxEven"/><text style="dominant-baseline: middle; font-size: 10.2px;" transform="translate(68.70890808105469,101)" y="0" x="0" id="text-entity-supplier-83897f16-47ad-56a4-80b2-af0c2194fa83-attr-4-name" class="er entityLabel">telephone</text><rect height="22" width="22.68768310546875" y="90" x="120.19007873535156" class="er attributeBoxEven"/><text style="dominant-baseline: middle; font-size: 10.2px;" transform="translate(125.19007873535156,101)" y="0" x="0" id="text-entity-supplier-83897f16-47ad-56a4-80b2-af0c2194fa83-attr-4-key" class="er entityLabel"/></g><g transform="translate(463.59100341796875,20 )" id="entity-products-ce7ac559-5ef1-5445-aa6b-0190aa04e35c"><rect height="112" width="228.6162872314453" y="0" x="0" class="er entityBox"/><text style="dominant-baseline: middle; text-anchor: middle; font-size: 12px;" transform="translate(114.30814361572266,12)" y="0" x="0" id="text-entity-products-ce7ac559-5ef1-5445-aa6b-0190aa04e35c" class="er entityLabel">products</text><rect height="22" width="63.70890808105469" y="24" x="0" class="er attributeBoxOdd"/><text style="dominant-baseline: middle; font-size: 10.2px;" transform="translate(5,35)" y="0" x="0" id="text-entity-products-ce7ac559-5ef1-5445-aa6b-0190aa04e35c-attr-1-type" class="er entityLabel">int</text><rect height="22" width="60.76934814453125" y="24" x="63.70890808105469" class="er attributeBoxOdd"/><text style="dominant-baseline: middle; font-size: 10.2px;" transform="translate(68.70890808105469,35)" y="0" x="0" id="text-entity-products-ce7ac559-5ef1-5445-aa6b-0190aa04e35c-attr-1-name" class="er entityLabel">id</text><rect height="22" width="22.68768310546875" y="24" x="124.47825622558594" class="er attributeBoxOdd"/><text style="dominant-baseline: middle; font-size: 10.2px;" transform="translate(129.47825622558594,35)" y="0" x="0" id="text-entity-products-ce7ac559-5ef1-5445-aa6b-0190aa04e35c-attr-1-key" class="er entityLabel">PK</text><rect height="22" width="81.45034790039062" y="24" x="147.1659393310547" class="er attributeBoxOdd"/><text style="dominant-baseline: middle; font-size: 10.2px;" transform="translate(152.1659393310547,35)" y="0" x="0" id="text-entity-products-ce7ac559-5ef1-5445-aa6b-0190aa04e35c-attr-1-comment" class="er entityLabel"/><rect height="22" width="63.70890808105469" y="46" x="0" class="er attributeBoxEven"/><text style="dominant-baseline: middle; font-size: 10.2px;" transform="translate(5,57)" y="0" x="0" id="text-entity-products-ce7ac559-5ef1-5445-aa6b-0190aa04e35c-attr-2-type" class="er entityLabel">varcahr(50)</text><rect height="22" width="60.76934814453125" y="46" x="63.70890808105469" class="er attributeBoxEven"/><text style="dominant-baseline: middle; font-size: 10.2px;" transform="translate(68.70890808105469,57)" y="0" x="0" id="text-entity-products-ce7ac559-5ef1-5445-aa6b-0190aa04e35c-attr-2-name" class="er entityLabel">name</text><rect height="22" width="22.68768310546875" y="46" x="124.47825622558594" class="er attributeBoxEven"/><text style="dominant-baseline: middle; font-size: 10.2px;" transform="translate(129.47825622558594,57)" y="0" x="0" id="text-entity-products-ce7ac559-5ef1-5445-aa6b-0190aa04e35c-attr-2-key" class="er entityLabel"/><rect height="22" width="81.45034790039062" y="46" x="147.1659393310547" class="er attributeBoxEven"/><text style="dominant-baseline: middle; font-size: 10.2px;" transform="translate(152.1659393310547,57)" y="0" x="0" id="text-entity-products-ce7ac559-5ef1-5445-aa6b-0190aa04e35c-attr-2-comment" class="er entityLabel"/><rect height="22" width="63.70890808105469" y="68" x="0" class="er attributeBoxOdd"/><text style="dominant-baseline: middle; font-size: 10.2px;" transform="translate(5,79)" y="0" x="0" id="text-entity-products-ce7ac559-5ef1-5445-aa6b-0190aa04e35c-attr-3-type" class="er entityLabel">varchar(50)</text><rect height="22" width="60.76934814453125" y="68" x="63.70890808105469" class="er attributeBoxOdd"/><text style="dominant-baseline: middle; font-size: 10.2px;" transform="translate(68.70890808105469,79)" y="0" x="0" id="text-entity-products-ce7ac559-5ef1-5445-aa6b-0190aa04e35c-attr-3-name" class="er entityLabel">price</text><rect height="22" width="22.68768310546875" y="68" x="124.47825622558594" class="er attributeBoxOdd"/><text style="dominant-baseline: middle; font-size: 10.2px;" transform="translate(129.47825622558594,79)" y="0" x="0" id="text-entity-products-ce7ac559-5ef1-5445-aa6b-0190aa04e35c-attr-3-key" class="er entityLabel"/><rect height="22" width="81.45034790039062" y="68" x="147.1659393310547" class="er attributeBoxOdd"/><text style="dominant-baseline: middle; font-size: 10.2px;" transform="translate(152.1659393310547,79)" y="0" x="0" id="text-entity-products-ce7ac559-5ef1-5445-aa6b-0190aa04e35c-attr-3-comment" class="er entityLabel"/><rect height="22" width="63.70890808105469" y="90" x="0" class="er attributeBoxEven"/><text style="dominant-baseline: middle; font-size: 10.2px;" transform="translate(5,101)" y="0" x="0" id="text-entity-products-ce7ac559-5ef1-5445-aa6b-0190aa04e35c-attr-4-type" class="er entityLabel">int</text><rect height="22" width="60.76934814453125" y="90" x="63.70890808105469" class="er attributeBoxEven"/><text style="dominant-baseline: middle; font-size: 10.2px;" transform="translate(68.70890808105469,101)" y="0" x="0" id="text-entity-products-ce7ac559-5ef1-5445-aa6b-0190aa04e35c-attr-4-name" class="er entityLabel">supplier_id</text><rect height="22" width="22.68768310546875" y="90" x="124.47825622558594" class="er attributeBoxEven"/><text style="dominant-baseline: middle; font-size: 10.2px;" transform="translate(129.47825622558594,101)" y="0" x="0" id="text-entity-products-ce7ac559-5ef1-5445-aa6b-0190aa04e35c-attr-4-key" class="er entityLabel">FK</text><rect height="22" width="81.45034790039062" y="90" x="147.1659393310547" class="er attributeBoxEven"/><text style="dominant-baseline: middle; font-size: 10.2px;" transform="translate(152.1659393310547,101)" y="0" x="0" id="text-entity-products-ce7ac559-5ef1-5445-aa6b-0190aa04e35c-attr-4-comment" class="er entityLabel">Ref:supplier(id)</text></g><rect height="14" width="59.669921875" y="175" x="548.064208984375" class="er relationshipLabelBox"/><text style="text-anchor: middle; dominant-baseline: middle; font-size: 12px;" y="182" x="577.899169921875" id="rel1" class="er relationshipLabel">supplier_id</text></svg>